<?xml version="1.0" encoding="iso-8859-1"?>
<!-- Generator: Adobe Illustrator 19.1.0, SVG Export Plug-In . SVG Version: 6.00 Build 0)  -->
<svg version="1.1" id="Capa_1" xmlns="http://www.w3.org/2000/svg" xmlns:xlink="http://www.w3.org/1999/xlink" x="0px" y="0px"
	 viewBox="0 0 123.036 123.036" style="enable-background:new 0 0 123.036 123.036;" xml:space="preserve">
<g>
	<g>
		<path d="M61.368,116.695c-6.205,0-10.468-2.708-10.647-2.823C25.206,98.298,3.987,78.865,1.868,76.649
			c-2.091-2.187-1.902-5.008-1.828-5.648c0.069-1.913,1.882-4.569,2.444-5.349L22.491,39.95
			c-1.964-4.96-10.244-25.883-10.601-27.074c-0.526-1.754-0.255-4.266,1.583-5.634c1.894-1.411,4.339-0.871,5.485-0.33
			l27.054,11.815c8.37-3.244,15.149-3.282,15.44-3.282c0.828,0,1.499,0.67,1.499,1.499c0.001,0.828-0.669,1.5-1.498,1.501
			c-0.067,0-6.84,0.052-14.911,3.298c-0.373,0.15-0.791,0.144-1.16-0.017L17.716,9.643c-0.046-0.02-1.546-0.672-2.451,0.005
			c-0.612,0.456-0.737,1.583-0.502,2.366c0.306,0.984,6.646,17.062,10.833,27.628c0.196,0.494,0.116,1.055-0.211,1.474L4.885,67.45
			c-0.856,1.191-1.847,3.017-1.847,3.662c0,0.081-0.006,0.161-0.02,0.24c0,0.006-0.255,1.892,1.018,3.223
			c2.086,2.181,23,21.326,48.28,36.756c0.065,0.042,3.77,2.363,9.052,2.363c0.829,0,1.5,0.671,1.5,1.5
			S62.197,116.695,61.368,116.695z"/>
		<path d="M29.907,35.644c-0.081,0-0.162-0.006-0.243-0.02c-0.499-0.082-0.922-0.409-1.127-0.871
			c-1.178-2.651-5.038-11.342-5.229-11.892c-0.352-1.019-0.236-2.516,0.849-3.398c1.035-0.84,2.387-0.721,3.23-0.365l12.105,4.703
			c0.481,0.187,0.832,0.608,0.93,1.114c0.097,0.507-0.072,1.028-0.45,1.38c-0.057,0.053-5.728,5.351-8.962,8.864
			C30.724,35.471,30.323,35.644,29.907,35.644z M26.134,21.843c0.002,0.014,0.005,0.026,0.009,0.037
			c0.167,0.44,2.365,5.416,4.222,9.6c1.988-2.049,4.291-4.275,5.83-5.742l-9.935-3.86C26.222,21.864,26.178,21.852,26.134,21.843z"
			/>
		<path d="M43.202,73.279c-3.492,0-6.333-2.841-6.333-6.334c0-3.492,2.841-6.333,6.333-6.333s6.333,2.841,6.333,6.333
			C49.535,70.438,46.695,73.279,43.202,73.279z M43.202,63.612c-1.838,0-3.333,1.495-3.333,3.333c0,1.838,1.495,3.334,3.333,3.334
			s3.333-1.496,3.333-3.334C46.535,65.107,45.04,63.612,43.202,63.612z"/>
		<path d="M55.867,92.613c-0.687,0-1.306-0.475-1.462-1.172c-0.016-0.068-1.346-5.731-6.325-11.332
			c-0.55-0.619-0.495-1.567,0.125-2.118c0.618-0.55,1.566-0.495,2.118,0.125c5.528,6.22,6.952,12.411,7.01,12.671
			c0.18,0.809-0.33,1.61-1.139,1.79C56.084,92.601,55.975,92.613,55.867,92.613z"/>
		<path d="M31.326,98.82c-0.362,0-0.725-0.13-1.013-0.394c-0.61-0.56-0.652-1.509-0.092-2.12
			c0.192-0.209,19.24-20.994,21.555-23.917c1.913-2.417,1.582-4.993,1.567-5.102C53.254,66.491,51.326,49,51.326,46.57
			c0-0.245,0-0.895-0.873-0.96c-0.055-0.004-0.142-0.013-0.197-0.023C34.265,42.581,11.8,58.503,11.575,58.664
			c-0.672,0.484-1.609,0.329-2.093-0.345C9,57.646,9.154,56.709,9.827,56.226c0.959-0.688,23.633-16.779,40.889-13.606
			c1.498,0.11,3.611,1.224,3.611,3.95c0,1.881,1.437,15.317,1.991,20.335c0.016,0.096,0.56,3.873-2.189,7.346
			c-2.381,3.008-20.908,23.223-21.695,24.083C32.136,98.656,31.732,98.82,31.326,98.82z"/>
		<path d="M7.034,80.779c-0.328,0-0.657-0.106-0.933-0.326c-0.648-0.516-0.755-1.46-0.24-2.108
			c13.378-16.81,30.586-25.948,39.489-25.059c8.136,0.805,9.903,4.665,10.078,5.102c0.307,0.77-0.067,1.642-0.836,1.95
			c-0.759,0.303-1.614-0.055-1.934-0.799c-0.062-0.121-1.444-2.658-7.603-3.267c-7.95-0.785-24.273,8.145-36.846,23.941
			C7.913,80.585,7.476,80.779,7.034,80.779z"/>
		<path d="M61.667,116.695c-0.829,0-1.5-0.671-1.5-1.5s0.671-1.5,1.5-1.5c5.282,0,8.986-2.322,9.023-2.345
			c25.309-15.449,46.223-34.593,48.309-36.774c1.273-1.332,1.018-3.217,1.016-3.236c-0.01-0.071-0.018-0.156-0.018-0.228
			c0-0.648-0.991-2.473-1.88-3.706l-20.467-26.29c-0.327-0.419-0.407-0.98-0.211-1.474c4.187-10.566,10.527-26.645,10.833-27.631
			c0.234-0.781,0.109-1.908-0.502-2.363c-0.916-0.682-2.396-0.031-2.412-0.023L77.654,21.726c-0.369,0.161-0.787,0.167-1.16,0.017
			c-8.07-3.246-14.843-3.298-14.911-3.298c-0.828-0.002-1.499-0.674-1.498-1.501c0-0.828,0.671-1.499,1.499-1.499
			c0.291,0,7.07,0.038,15.44,3.282l27.094-11.833c1.106-0.523,3.551-1.063,5.445,0.349c1.837,1.368,2.108,3.879,1.582,5.634
			c-0.357,1.191-8.637,22.114-10.601,27.074l19.973,25.657c0.595,0.824,2.408,3.48,2.478,5.393c0.074,0.64,0.263,3.461-1.828,5.648
			c-2.119,2.217-23.337,21.649-48.886,37.244C72.135,113.988,67.872,116.695,61.667,116.695z"/>
		<path d="M93.128,35.644c-0.416,0-0.817-0.173-1.104-0.484c-3.235-3.514-8.905-8.811-8.962-8.864
			c-0.377-0.352-0.547-0.874-0.45-1.38c0.098-0.506,0.449-0.928,0.93-1.114l12.146-4.719c0.803-0.339,2.156-0.458,3.188,0.379
			c1.087,0.884,1.203,2.381,0.852,3.398c-0.191,0.551-4.051,9.243-5.229,11.894c-0.205,0.461-0.629,0.789-1.127,0.871
			C93.29,35.638,93.209,35.644,93.128,35.644z M86.841,25.738c1.539,1.467,3.842,3.693,5.83,5.742
			c1.856-4.185,4.056-9.163,4.229-9.619c0.002-0.006,0.004-0.014,0.005-0.023c-0.038,0.011-0.082,0.021-0.116,0.035L86.841,25.738z"
			/>
		<path d="M79.833,73.279c-3.492,0-6.333-2.841-6.333-6.334c0-3.492,2.841-6.333,6.333-6.333s6.333,2.841,6.333,6.333
			C86.166,70.438,83.325,73.279,79.833,73.279z M79.833,63.612c-1.838,0-3.333,1.495-3.333,3.333c0,1.838,1.495,3.334,3.333,3.334
			s3.333-1.496,3.333-3.334C83.166,65.107,81.671,63.612,79.833,63.612z"/>
		<path d="M67.168,92.611c-0.108,0-0.219-0.012-0.329-0.037c-0.807-0.181-1.315-0.98-1.136-1.788
			c0.058-0.26,1.482-6.451,7.01-12.671c0.55-0.62,1.498-0.675,2.118-0.125c0.619,0.55,0.675,1.499,0.125,2.118
			c-4.983,5.606-6.312,11.275-6.325,11.332C68.473,92.137,67.854,92.611,67.168,92.611z"/>
		<path d="M91.71,98.82c-0.406,0-0.811-0.164-1.106-0.486c-0.787-0.859-19.314-21.075-21.695-24.083
			c-2.749-3.473-2.206-7.25-2.181-7.409c0.545-4.955,1.982-18.392,1.982-20.272c0-2.726,2.113-3.84,3.611-3.95
			c17.26-3.169,39.93,12.919,40.889,13.606c0.673,0.483,0.827,1.419,0.344,2.093c-0.482,0.674-1.418,0.829-2.093,0.345
			c-0.225-0.161-22.679-16.084-38.682-13.078c-0.074,0.014-0.148,0.022-0.223,0.025c-0.846,0.064-0.846,0.714-0.846,0.959
			c0,2.43-1.927,19.921-2.009,20.665c-0.021,0.161-0.353,2.738,1.561,5.154c2.314,2.924,21.362,23.708,21.555,23.917
			c0.56,0.611,0.518,1.56-0.092,2.12C92.435,98.69,92.071,98.82,91.71,98.82z"/>
		<path d="M116.001,80.779c-0.441,0-0.878-0.194-1.175-0.566c-12.573-15.797-28.923-24.718-36.845-23.941
			c-6.278,0.621-7.593,3.245-7.605,3.271c-0.348,0.732-1.224,1.08-1.965,0.754c-0.743-0.324-1.104-1.156-0.803-1.909
			c0.175-0.438,1.942-4.297,10.079-5.102c8.912-0.885,26.11,8.25,39.488,25.059c0.516,0.648,0.409,1.592-0.24,2.108
			C116.658,80.673,116.328,80.779,116.001,80.779z"/>
	</g>
	<path d="M61.555,106.383c-3.837,0-8.635-1.25-10.705-4.045c-0.918-1.239-1.178-2.636-0.75-4.038
		c2.451-8.045,8.613-8.041,11.261-8.042c2.727,0,8.949,0,11.44,8.035v0c0.441,1.424,0.186,2.84-0.74,4.096
		C70.299,104.778,66.078,106.383,61.555,106.383z M61.353,93.258c-2.692,0-6.598,0.055-8.383,5.917
		c-0.099,0.325-0.155,0.775,0.292,1.378c1.195,1.613,4.761,2.83,8.294,2.83c3.447,0,6.925-1.192,8.09-2.773
		c0.356-0.484,0.445-0.924,0.29-1.428l0,0c-1.695-5.466-5.279-5.924-8.505-5.924C61.404,93.258,61.379,93.258,61.353,93.258z"/>
</g>
<g>
</g>
<g>
</g>
<g>
</g>
<g>
</g>
<g>
</g>
<g>
</g>
<g>
</g>
<g>
</g>
<g>
</g>
<g>
</g>
<g>
</g>
<g>
</g>
<g>
</g>
<g>
</g>
<g>
</g>
</svg>
